<mxfile host="65bd71144e">
    <diagram id="Sjcj8bSLyZNPT32zqP8O" name="第 1 页">
        <mxGraphModel dx="1857" dy="1864" grid="1" gridSize="10" guides="1" tooltips="1" connect="1" arrows="1" fold="1" page="1" pageScale="1" pageWidth="827" pageHeight="1169" background="#ffffff" math="0" shadow="0">
            <root>
                <mxCell id="0"/>
                <mxCell id="1" parent="0"/>
                <mxCell id="shFq5MFTJ-geM8hRrxv9-6" value="" style="edgeStyle=orthogonalEdgeStyle;rounded=0;orthogonalLoop=1;jettySize=auto;html=1;" parent="1" source="dNrnp_x8zZgdl8JvFwpS-2" target="dNrnp_x8zZgdl8JvFwpS-3" edge="1">
                    <mxGeometry x="0.1429" y="-10" relative="1" as="geometry">
                        <mxPoint as="offset"/>
                    </mxGeometry>
                </mxCell>
                <mxCell id="dNrnp_x8zZgdl8JvFwpS-2" value="" style="rounded=1;whiteSpace=wrap;html=1;fillStyle=hatch;movable=1;resizable=1;rotatable=1;deletable=1;editable=1;connectable=1;" parent="1" vertex="1">
                    <mxGeometry x="160" y="-10" width="520" height="280" as="geometry"/>
                </mxCell>
                <mxCell id="dNrnp_x8zZgdl8JvFwpS-3" value="Kube-apiserver" style="rounded=1;whiteSpace=wrap;html=1;fillColor=#1ba1e2;strokeColor=#006EAF;fontColor=#ffffff;" parent="1" vertex="1">
                    <mxGeometry x="320" y="-90" width="200" height="40" as="geometry"/>
                </mxCell>
                <mxCell id="dNrnp_x8zZgdl8JvFwpS-5" value="ClusterReconciler" style="rounded=1;whiteSpace=wrap;html=1;fillColor=#dae8fc;strokeColor=#6c8ebf;movable=0;resizable=0;rotatable=0;deletable=0;editable=0;connectable=0;" parent="1" vertex="1">
                    <mxGeometry x="200" y="120" width="200" height="30" as="geometry"/>
                </mxCell>
                <mxCell id="dNrnp_x8zZgdl8JvFwpS-7" value="" style="rounded=1;whiteSpace=wrap;html=1;" parent="1" vertex="1">
                    <mxGeometry x="-141" y="371" width="360" height="229" as="geometry"/>
                </mxCell>
                <mxCell id="dNrnp_x8zZgdl8JvFwpS-8" value="" style="rounded=1;whiteSpace=wrap;html=1;" parent="1" vertex="1">
                    <mxGeometry x="-121" y="411" width="330" height="60" as="geometry"/>
                </mxCell>
                <mxCell id="dNrnp_x8zZgdl8JvFwpS-9" value="" style="rounded=1;whiteSpace=wrap;html=1;" parent="1" vertex="1">
                    <mxGeometry x="-121" y="511" width="330" height="60" as="geometry"/>
                </mxCell>
                <mxCell id="dNrnp_x8zZgdl8JvFwpS-10" value="amazon-vpc-cni" style="rounded=1;whiteSpace=wrap;html=1;fillColor=#d5e8d4;strokeColor=#82b366;" parent="1" vertex="1">
                    <mxGeometry x="-51" y="421" width="110" height="40" as="geometry"/>
                </mxCell>
                <mxCell id="dNrnp_x8zZgdl8JvFwpS-11" value="amazon-vpc-cni" style="rounded=1;whiteSpace=wrap;html=1;fillColor=#d5e8d4;strokeColor=#82b366;" parent="1" vertex="1">
                    <mxGeometry x="-51" y="521" width="110" height="40" as="geometry"/>
                </mxCell>
                <mxCell id="dNrnp_x8zZgdl8JvFwpS-12" value="CSI" style="rounded=1;whiteSpace=wrap;html=1;fillColor=#f8cecc;strokeColor=#b85450;" parent="1" vertex="1">
                    <mxGeometry x="69" y="521" width="110" height="40" as="geometry"/>
                </mxCell>
                <mxCell id="dNrnp_x8zZgdl8JvFwpS-13" value="" style="rounded=1;whiteSpace=wrap;html=1;" parent="1" vertex="1">
                    <mxGeometry x="240" y="371" width="360" height="229" as="geometry"/>
                </mxCell>
                <mxCell id="dNrnp_x8zZgdl8JvFwpS-14" value="aws-tenant1" style="text;html=1;align=center;verticalAlign=middle;resizable=0;points=[];autosize=1;strokeColor=none;fillColor=none;rounded=1;" parent="1" vertex="1">
                    <mxGeometry x="-126" y="350" width="90" height="30" as="geometry"/>
                </mxCell>
                <mxCell id="dNrnp_x8zZgdl8JvFwpS-16" value="aws-tenant2" style="text;html=1;align=center;verticalAlign=middle;resizable=0;points=[];autosize=1;strokeColor=none;fillColor=none;rounded=1;" parent="1" vertex="1">
                    <mxGeometry x="245" y="350" width="90" height="30" as="geometry"/>
                </mxCell>
                <mxCell id="dNrnp_x8zZgdl8JvFwpS-20" value="" style="aspect=fixed;html=1;points=[];align=center;image;fontSize=12;image=img/lib/mscae/Kubernetes.svg;strokeColor=#E07A5F;fontColor=#393C56;fillColor=#F2CC8F;rounded=1;" parent="1" vertex="1">
                    <mxGeometry x="-106" y="517" width="50" height="48" as="geometry"/>
                </mxCell>
                <mxCell id="dNrnp_x8zZgdl8JvFwpS-21" value="" style="aspect=fixed;html=1;points=[];align=center;image;fontSize=12;image=img/lib/mscae/Kubernetes.svg;strokeColor=#E07A5F;fontColor=#393C56;fillColor=#F2CC8F;rounded=1;" parent="1" vertex="1">
                    <mxGeometry x="-106" y="417" width="50" height="48" as="geometry"/>
                </mxCell>
                <mxCell id="dNrnp_x8zZgdl8JvFwpS-22" value="" style="rounded=1;whiteSpace=wrap;html=1;" parent="1" vertex="1">
                    <mxGeometry x="255" y="411" width="330" height="60" as="geometry"/>
                </mxCell>
                <mxCell id="dNrnp_x8zZgdl8JvFwpS-23" value="calico" style="rounded=1;whiteSpace=wrap;html=1;fillColor=#d5e8d4;strokeColor=#82b366;" parent="1" vertex="1">
                    <mxGeometry x="325" y="421" width="110" height="40" as="geometry"/>
                </mxCell>
                <mxCell id="dNrnp_x8zZgdl8JvFwpS-24" value="" style="aspect=fixed;html=1;points=[];align=center;image;fontSize=12;image=img/lib/mscae/Kubernetes.svg;strokeColor=#E07A5F;fontColor=#393C56;fillColor=#F2CC8F;rounded=1;" parent="1" vertex="1">
                    <mxGeometry x="270" y="417" width="50" height="48" as="geometry"/>
                </mxCell>
                <mxCell id="dNrnp_x8zZgdl8JvFwpS-25" value="" style="rounded=1;whiteSpace=wrap;html=1;" parent="1" vertex="1">
                    <mxGeometry x="255" y="511" width="330" height="60" as="geometry"/>
                </mxCell>
                <mxCell id="dNrnp_x8zZgdl8JvFwpS-26" value="calico" style="rounded=1;whiteSpace=wrap;html=1;fillColor=#d5e8d4;strokeColor=#82b366;" parent="1" vertex="1">
                    <mxGeometry x="325" y="521" width="110" height="40" as="geometry"/>
                </mxCell>
                <mxCell id="dNrnp_x8zZgdl8JvFwpS-27" value="" style="aspect=fixed;html=1;points=[];align=center;image;fontSize=12;image=img/lib/mscae/Kubernetes.svg;strokeColor=#E07A5F;fontColor=#393C56;fillColor=#F2CC8F;rounded=1;" parent="1" vertex="1">
                    <mxGeometry x="270" y="517" width="50" height="48" as="geometry"/>
                </mxCell>
                <mxCell id="dNrnp_x8zZgdl8JvFwpS-28" value="AWS LoadBalancer Controller&amp;nbsp;" style="rounded=1;whiteSpace=wrap;html=1;fillColor=#e1d5e7;strokeColor=#9673a6;" parent="1" vertex="1">
                    <mxGeometry x="450" y="521" width="110" height="40" as="geometry"/>
                </mxCell>
                <mxCell id="FfuM3ul3eue3nK90xfwg-2" value="MachineReconciler" style="rounded=1;whiteSpace=wrap;html=1;fillColor=#dae8fc;strokeColor=#6c8ebf;movable=0;resizable=0;rotatable=0;deletable=0;editable=0;connectable=0;" parent="1" vertex="1">
                    <mxGeometry x="440" y="120" width="200" height="30" as="geometry"/>
                </mxCell>
                <mxCell id="FfuM3ul3eue3nK90xfwg-4" value="MachineSetReconciler" style="rounded=1;whiteSpace=wrap;html=1;fillColor=#dae8fc;strokeColor=#6c8ebf;movable=0;resizable=0;rotatable=0;deletable=0;editable=0;connectable=0;" parent="1" vertex="1">
                    <mxGeometry x="200" y="160" width="200" height="30" as="geometry"/>
                </mxCell>
                <mxCell id="FfuM3ul3eue3nK90xfwg-6" value="MachineDeploymentReconciler" style="rounded=1;whiteSpace=wrap;html=1;fillColor=#dae8fc;strokeColor=#6c8ebf;movable=0;resizable=0;rotatable=0;deletable=0;editable=0;connectable=0;" parent="1" vertex="1">
                    <mxGeometry x="440" y="160" width="200" height="30" as="geometry"/>
                </mxCell>
                <mxCell id="FfuM3ul3eue3nK90xfwg-7" value="KubeadmControlPlaneReconciler" style="rounded=1;whiteSpace=wrap;html=1;fillColor=#dae8fc;strokeColor=#6c8ebf;movable=0;resizable=0;rotatable=0;deletable=0;editable=0;connectable=0;" parent="1" vertex="1">
                    <mxGeometry x="200" y="200" width="200" height="30" as="geometry"/>
                </mxCell>
                <mxCell id="FfuM3ul3eue3nK90xfwg-8" value="KubeadmConfigReconciler" style="rounded=1;whiteSpace=wrap;html=1;fillColor=#dae8fc;strokeColor=#6c8ebf;movable=0;resizable=0;rotatable=0;deletable=0;editable=0;connectable=0;" parent="1" vertex="1">
                    <mxGeometry x="440" y="200" width="200" height="30" as="geometry"/>
                </mxCell>
                <mxCell id="FfuM3ul3eue3nK90xfwg-10" value="CustomClusterReconciler" style="rounded=1;whiteSpace=wrap;html=1;fillColor=#d5e8d4;strokeColor=#82b366;movable=0;resizable=0;rotatable=0;deletable=0;editable=0;connectable=0;" parent="1" vertex="1">
                    <mxGeometry x="200" y="40" width="202.5" height="30" as="geometry"/>
                </mxCell>
                <mxCell id="FfuM3ul3eue3nK90xfwg-11" value="CustomMachineReconciler" style="rounded=1;whiteSpace=wrap;html=1;fillColor=#d5e8d4;strokeColor=#82b366;movable=0;resizable=0;rotatable=0;deletable=0;editable=0;connectable=0;" parent="1" vertex="1">
                    <mxGeometry x="200" y="80" width="200" height="30" as="geometry"/>
                </mxCell>
                <mxCell id="FfuM3ul3eue3nK90xfwg-12" value="AWSMachineReconciler" style="rounded=1;whiteSpace=wrap;html=1;fillColor=#ffe6cc;strokeColor=#d79b00;movable=0;resizable=0;rotatable=0;deletable=0;editable=0;connectable=0;" parent="1" vertex="1">
                    <mxGeometry x="440" y="40" width="200" height="30" as="geometry"/>
                </mxCell>
                <mxCell id="FfuM3ul3eue3nK90xfwg-13" value="AWSClusterReconciler" style="rounded=1;whiteSpace=wrap;html=1;fillColor=#ffe6cc;strokeColor=#d79b00;movable=0;resizable=0;rotatable=0;deletable=0;editable=0;connectable=0;" parent="1" vertex="1">
                    <mxGeometry x="440" y="80" width="200" height="30" as="geometry"/>
                </mxCell>
                <mxCell id="shFq5MFTJ-geM8hRrxv9-1" value="ClusterOperator" style="text;strokeColor=none;fillColor=none;html=1;fontSize=24;fontStyle=1;verticalAlign=middle;align=center;" parent="1" vertex="1">
                    <mxGeometry x="190" y="-42" width="100" height="40" as="geometry"/>
                </mxCell>
                <mxCell id="tJGJkVA72KVNXfPsa_TR-2" value="" style="rounded=1;whiteSpace=wrap;html=1;" parent="1" vertex="1">
                    <mxGeometry x="626" y="371" width="360" height="229" as="geometry"/>
                </mxCell>
                <mxCell id="tJGJkVA72KVNXfPsa_TR-3" value="tenant3&lt;br&gt;on premise" style="text;html=1;align=center;verticalAlign=middle;resizable=0;points=[];autosize=1;strokeColor=none;fillColor=none;rounded=1;" parent="1" vertex="1">
                    <mxGeometry x="636" y="335" width="80" height="40" as="geometry"/>
                </mxCell>
                <mxCell id="tJGJkVA72KVNXfPsa_TR-4" value="" style="rounded=1;whiteSpace=wrap;html=1;" parent="1" vertex="1">
                    <mxGeometry x="641" y="411" width="330" height="60" as="geometry"/>
                </mxCell>
                <mxCell id="tJGJkVA72KVNXfPsa_TR-5" value="cilium" style="rounded=1;whiteSpace=wrap;html=1;fillColor=#d5e8d4;strokeColor=#82b366;" parent="1" vertex="1">
                    <mxGeometry x="711" y="421" width="110" height="40" as="geometry"/>
                </mxCell>
                <mxCell id="tJGJkVA72KVNXfPsa_TR-6" value="" style="aspect=fixed;html=1;points=[];align=center;image;fontSize=12;image=img/lib/mscae/Kubernetes.svg;strokeColor=#E07A5F;fontColor=#393C56;fillColor=#F2CC8F;rounded=1;" parent="1" vertex="1">
                    <mxGeometry x="656" y="417" width="50" height="48" as="geometry"/>
                </mxCell>
                <mxCell id="tJGJkVA72KVNXfPsa_TR-7" value="" style="rounded=1;whiteSpace=wrap;html=1;" parent="1" vertex="1">
                    <mxGeometry x="641" y="511" width="330" height="60" as="geometry"/>
                </mxCell>
                <mxCell id="tJGJkVA72KVNXfPsa_TR-8" value="cilium" style="rounded=1;whiteSpace=wrap;html=1;fillColor=#d5e8d4;strokeColor=#82b366;" parent="1" vertex="1">
                    <mxGeometry x="711" y="521" width="110" height="40" as="geometry"/>
                </mxCell>
                <mxCell id="tJGJkVA72KVNXfPsa_TR-9" value="" style="aspect=fixed;html=1;points=[];align=center;image;fontSize=12;image=img/lib/mscae/Kubernetes.svg;strokeColor=#E07A5F;fontColor=#393C56;fillColor=#F2CC8F;rounded=1;" parent="1" vertex="1">
                    <mxGeometry x="656" y="517" width="50" height="48" as="geometry"/>
                </mxCell>
                <mxCell id="tJGJkVA72KVNXfPsa_TR-10" value="ingress controller" style="rounded=1;whiteSpace=wrap;html=1;fillColor=#e1d5e7;strokeColor=#9673a6;" parent="1" vertex="1">
                    <mxGeometry x="836" y="521" width="110" height="40" as="geometry"/>
                </mxCell>
                <mxCell id="tJGJkVA72KVNXfPsa_TR-11" value="CSI" style="rounded=1;whiteSpace=wrap;html=1;fillColor=#f8cecc;strokeColor=#b85450;" parent="1" vertex="1">
                    <mxGeometry x="69" y="421" width="110" height="40" as="geometry"/>
                </mxCell>
                <mxCell id="tJGJkVA72KVNXfPsa_TR-12" value="AWS LoadBalancer Controller&amp;nbsp;" style="rounded=1;whiteSpace=wrap;html=1;fillColor=#e1d5e7;strokeColor=#9673a6;" parent="1" vertex="1">
                    <mxGeometry x="450" y="421" width="110" height="40" as="geometry"/>
                </mxCell>
                <mxCell id="tJGJkVA72KVNXfPsa_TR-13" value="ingress controller" style="rounded=1;whiteSpace=wrap;html=1;fillColor=#e1d5e7;strokeColor=#9673a6;" parent="1" vertex="1">
                    <mxGeometry x="833" y="421" width="110" height="40" as="geometry"/>
                </mxCell>
                <mxCell id="tJGJkVA72KVNXfPsa_TR-14" value="" style="endArrow=classic;html=1;rounded=0;exitX=0.25;exitY=1;exitDx=0;exitDy=0;entryX=0.5;entryY=0;entryDx=0;entryDy=0;" parent="1" source="dNrnp_x8zZgdl8JvFwpS-2" target="dNrnp_x8zZgdl8JvFwpS-7" edge="1">
                    <mxGeometry width="50" height="50" relative="1" as="geometry">
                        <mxPoint x="390" y="310" as="sourcePoint"/>
                        <mxPoint x="440" y="260" as="targetPoint"/>
                    </mxGeometry>
                </mxCell>
                <mxCell id="tJGJkVA72KVNXfPsa_TR-15" value="" style="endArrow=classic;html=1;rounded=0;exitX=0.5;exitY=1;exitDx=0;exitDy=0;entryX=0.5;entryY=0;entryDx=0;entryDy=0;" parent="1" source="dNrnp_x8zZgdl8JvFwpS-2" target="dNrnp_x8zZgdl8JvFwpS-13" edge="1">
                    <mxGeometry width="50" height="50" relative="1" as="geometry">
                        <mxPoint x="300" y="280" as="sourcePoint"/>
                        <mxPoint x="49" y="381" as="targetPoint"/>
                    </mxGeometry>
                </mxCell>
                <mxCell id="tJGJkVA72KVNXfPsa_TR-16" value="" style="endArrow=classic;html=1;rounded=0;exitX=0.771;exitY=1.004;exitDx=0;exitDy=0;exitPerimeter=0;entryX=0.5;entryY=0;entryDx=0;entryDy=0;" parent="1" source="dNrnp_x8zZgdl8JvFwpS-2" target="tJGJkVA72KVNXfPsa_TR-2" edge="1">
                    <mxGeometry width="50" height="50" relative="1" as="geometry">
                        <mxPoint x="430" y="280" as="sourcePoint"/>
                        <mxPoint x="830" y="370" as="targetPoint"/>
                    </mxGeometry>
                </mxCell>
                <mxCell id="tJGJkVA72KVNXfPsa_TR-17" value="&lt;span style=&quot;color: rgb(0, 0, 0); font-family: Helvetica; font-size: 11px; font-style: normal; font-variant-ligatures: normal; font-variant-caps: normal; font-weight: 400; letter-spacing: normal; orphans: 2; text-align: center; text-indent: 0px; text-transform: none; widows: 2; word-spacing: 0px; -webkit-text-stroke-width: 0px; background-color: rgb(255, 255, 255); text-decoration-thickness: initial; text-decoration-style: initial; text-decoration-color: initial; float: none; display: inline !important;&quot;&gt;list-watch&lt;/span&gt;" style="text;whiteSpace=wrap;html=1;" parent="1" vertex="1">
                    <mxGeometry x="430" y="-30" width="60" height="30" as="geometry"/>
                </mxCell>
                <mxCell id="3" value="ClusterController" style="rounded=1;whiteSpace=wrap;html=1;fillColor=#d5e8d4;strokeColor=#82b366;movable=0;resizable=0;rotatable=0;deletable=0;editable=0;connectable=0;" vertex="1" parent="1">
                    <mxGeometry x="199" width="202.5" height="30" as="geometry"/>
                </mxCell>
            </root>
        </mxGraphModel>
    </diagram>
</mxfile>